<?xml version="1.0" encoding="utf-8"?>
<?xml-stylesheet type="text/xsl" href="rss1.xsl"?>
<rss version="2.0" xmlns:atom="http://www.w3.org/2005/Atom" xmlns:content="http://purl.org/rss/1.0/modules/content/" xmlns:dc="http://purl.org/dc/elements/1.1/" xmlns:media="http://search.yahoo.com/mrss/">
<channel>
 <title>Getty</title>
 <link>http://www.gettyimg.com/</link>
 <atom:link href="http://www.gettyimg.com/" rel="self" type="application/rss+xml" />

 
                <item>
                <title><![CDATA[【Cinema Center】SERIES - Regular.Show.S03-S08.1080p.WEB.H264-WALT]]></title>
                <link><![CDATA[https://sharemania.us/threads/regular-show-s03-s08-1080p-web-h264-walt.235819/]]></link>
                <description><![CDATA[<article>
<blockquote class="messageText SelectQuoteContainer ugc baseHtml">
<img src="https://resizing.flixster.com/-XZAfHZM39UwaGJIFWKAE8fS0ak=/v3/t/assets/p8273235_b_h9_aa.jpg" class="bbCodeImage LbImage" alt="[​IMG]" data-url="https://resizing.flixster.com/-XZAfHZM39UwaGJIFWKAE8fS0ak=/v3/t/assets/p8273235_b_h9_aa.jpg" style=""><br>
IMDb:<br>
<div class="bbCodeBlock bbCodeCode">
<div class="type">Code:</div>
<pre>https://www.imdb.com/title/tt1710308/</pre>
</div>
<div class="ToggleTriggerAnchor bbCodeSpoilerContainer">
<button type="button" class="button bbCodeSpoilerButton ToggleTrigger Tooltip JsOnly" data-target="> .SpoilerTarget"><span>Spoiler: <span class="SpoilerTitle">MediaInfo</span></span></button>
<div class="SpoilerTarget bbCodeSpoilerText">
<div class="bbCodeBlock bbCodeCode">
<div class="type">Code:</div>
<pre>Complete name : Regular.Show.S03E01.1080p.WEB.H264-WALT.mkv
Format : Matroska
Format version : Version 4
File size : 657 MiB
Duration : 11 min 23 s
Overall bit rate mode : Variable
Overall bit rate : 8 066 kb/s
Encoded date : UTC 2020-06-10 09:49:08
Writing application : mkvmerge v47.0.0 ('Black Flag') 64-bit
Writing library : libebml v1.3.10 + libmatroska v1.5.2

Video
ID : 1
Format : AVC
Format/Info : Advanced Video Codec
Format profile : High@L4
Format settings : CABAC / 4 Ref Frames
Format settings, CABAC : Yes
Format settings, Reference frames : 4 frames
Codec ID : V_MPEG4/ISO/AVC
Duration : 11 min 23 s
Bit rate mode : Variable
Bit rate : 7 680 kb/s
Maximum bit rate : 12.4 Mb/s
Width : 1 920 pixels
Height : 1 080 pixels
Display aspect ratio : 16:9
Frame rate mode : Constant
Frame rate : 23.976 (24000/1001) FPS
Color space : YUV
Chroma subsampling : 4:2:0
Bit depth : 8 bits
Scan type : Progressive
Bits/(Pixel*Frame) : 0.154
Stream size : 626 MiB (95%)
Language : English
Default : Yes
Forced : No

Audio
ID : 2
Format : AC-3
Format/Info : Audio Coding 3
Commercial name : Dolby Digital
Codec ID : A_AC3
Duration : 11 min 23 s
Bit rate mode : Constant
Bit rate : 384 kb/s
Channel(s) : 2 channels
Channel layout : L R
Sampling rate : 48.0 kHz
Frame rate : 31.250 FPS (1536 SPF)
Compression mode : Lossy
Stream size : 31.3 MiB (5%)
Language : English
Service kind : Complete Main
Default : Yes
Forced : No

Text
ID : 3
Format : UTF-8
Codec ID : S_TEXT/UTF8
Codec ID/Info : UTF-8 Plain Text
Duration : 10 min 47 s
Bit rate : 98 b/s
Count of elements : 384
Stream size : 7.81 KiB (0%)
Title : English (SDH)
Language : English
Default : No
Forced : No
</pre>
</div></div>
</div><br>
Trailer<br>
<span data-s9e-mediaembed="youtube" style="display:inline-block;width:100%;max-width:640px"><span style="display:block;overflow:hidden;position:relative;padding-bottom:56.25%"><iframe allowfullscreen="" loading="lazy" scrolling="no" style="background:url(https://i.ytimg.com/vi/Mm-Zc1_I1_8/hqdefault.jpg) 50% 50% / cover;border:0;height:100%;left:0;position:absolute;width:100%" src="https://www.youtube.com/embed/Mm-Zc1_I1_8"></iframe></span></span><br>
<br>
Download (Telegram):<br>
<div class="bbCodeBlock bbCodeVfcHH HiddenContent">
<div class="attribution type">Hidden Content:</div>
<blockquote>You must either reply or click 'Like' to see the hidden information contained here.</blockquote>
</div>
<div class="messageTextEndMarker">&nbsp;</div>
</blockquote>
</article>]]></description>
                <author><![CDATA[Retrovirus]]></author>
                </item>

                </channel></rss>